<?xml version="1.0" standalone="no"?>
<!DOCTYPE svg PUBLIC "-//W3C//DTD SVG 20010904//EN"
 "http://www.w3.org/TR/2001/REC-SVG-20010904/DTD/svg10.dtd">
<svg version="1.0" xmlns="http://www.w3.org/2000/svg"
 width="88.000000pt" height="88.000000pt" viewBox="0 0 88.000000 88.000000"
 preserveAspectRatio="xMidYMid meet">
<metadata>
Created by potrace 1.14, written by Peter Selinger 2001-2017
</metadata>
<g transform="translate(0.000000,88.000000) scale(0.100000,-0.100000)"
fill="#000000" stroke="none">
<path d="M90 638 c0 -161 4 -238 10 -228 8 13 10 12 10 -3 0 -11 4 -15 12 -11
7 4 8 3 4 -4 -4 -7 -14 -12 -22 -12 -21 0 -20 -126 1 -147 9 -8 18 -13 21 -10
3 3 19 -8 37 -24 17 -16 33 -27 35 -24 2 2 15 -6 28 -18 38 -36 53 -47 62 -47
5 0 23 -13 40 -29 16 -16 33 -27 36 -24 3 4 6 0 6 -7 0 -7 3 -10 6 -7 4 4 15
-3 26 -15 25 -29 55 -30 77 -1 11 12 23 23 28 23 5 0 20 10 33 23 14 12 28 21
32 20 5 -2 8 2 8 8 0 5 4 8 9 5 5 -3 11 1 15 9 3 8 13 15 21 15 9 0 14 4 11 9
-3 5 6 12 19 15 14 4 24 10 21 15 -3 4 13 16 35 26 22 10 45 27 50 37 6 10 14
16 20 13 5 -4 9 115 9 314 l0 321 -350 0 -350 0 0 -242z"/>
</g>
</svg>
