<svg width="36" height="36" viewBox="0 0 36 36" fill="none" xmlns="http://www.w3.org/2000/svg">
<g clip-path="url(#clip0)">
<path d="M9.48277 10.6071C9.48277 11.2465 9.73676 11.8597 10.1889 12.3118C10.6409 12.7639 11.2541 13.0179 11.8935 13.0179C12.5328 13.0179 13.146 12.7639 13.5981 12.3118C14.0502 11.8597 14.3042 11.2465 14.3042 10.6071C14.3042 9.96778 14.0502 9.35461 13.5981 8.90251C13.146 8.45041 12.5328 8.19643 11.8935 8.19643C11.2541 8.19643 10.6409 8.45041 10.1889 8.90251C9.73676 9.35461 9.48277 9.96778 9.48277 10.6071ZM31.6613 0H4.33991C3.62875 0 3.0542 0.574554 3.0542 1.28571V27.8036C3.0542 28.5147 3.62875 29.0893 4.33991 29.0893H31.6613C32.3725 29.0893 32.9471 28.5147 32.9471 27.8036V1.28571C32.9471 0.574554 32.3725 0 31.6613 0ZM30.3756 26.5179H5.62563V2.57143H30.3756V26.5179ZM21.6971 10.6071C21.6971 11.2465 21.951 11.8597 22.4031 12.3118C22.8552 12.7639 23.4684 13.0179 24.1078 13.0179C24.7471 13.0179 25.3603 12.7639 25.8124 12.3118C26.2645 11.8597 26.5185 11.2465 26.5185 10.6071C26.5185 9.96778 26.2645 9.35461 25.8124 8.90251C25.3603 8.45041 24.7471 8.19643 24.1078 8.19643C23.4684 8.19643 22.8552 8.45041 22.4031 8.90251C21.951 9.35461 21.6971 9.96778 21.6971 10.6071ZM31.7497 32.9464H4.25152C3.58857 32.9464 3.0542 33.521 3.0542 34.2321V35.6786C3.0542 35.8554 3.18679 36 3.35152 36H32.6457C32.8105 36 32.943 35.8554 32.943 35.6786V34.2321C32.9471 33.521 32.4127 32.9464 31.7497 32.9464ZM24.1078 17.8393H11.8935C11.7167 17.8393 11.5721 17.9839 11.5721 18.1607V20.5714C11.5721 20.7482 11.7167 20.8929 11.8935 20.8929H24.1078C24.2846 20.8929 24.4292 20.7482 24.4292 20.5714V18.1607C24.4292 17.9839 24.2846 17.8393 24.1078 17.8393Z" fill="#3B6CCB"/>
</g>
<defs>
<clipPath id="clip0">
<rect width="36" height="36" fill="white"/>
</clipPath>
</defs>
</svg>
