<svg width="29" height="30" viewBox="0 0 29 30" fill="none" xmlns="http://www.w3.org/2000/svg">
<path d="M26.0867 2.51074H19.4129C18.8497 2.51074 18.348 2.8959 18.2153 3.45907C17.8107 5.168 16.2798 6.39467 14.4997 6.39467C12.7196 6.39467 11.1886 5.168 10.7841 3.45907C10.7209 3.18895 10.5682 2.94817 10.3508 2.77596C10.1333 2.60375 9.86391 2.51027 9.58652 2.51074H2.91263C2.53494 2.51074 2.17271 2.66078 1.90564 2.92786C1.63856 3.19493 1.48853 3.55715 1.48853 3.93485V12.0911C1.48853 12.4688 1.63856 12.831 1.90564 13.0981C2.17271 13.3652 2.53494 13.5152 2.91263 13.5152H5.34009V26.0732C5.34009 26.4509 5.49013 26.8132 5.7572 27.0802C6.02427 27.3473 6.3865 27.4974 6.7642 27.4974H22.2352C22.6129 27.4974 22.9751 27.3473 23.2422 27.0802C23.5092 26.8132 23.6593 26.4509 23.6593 26.0732V13.5152H26.0867C26.4644 13.5152 26.8267 13.3652 27.0937 13.0981C27.3608 12.831 27.5108 12.4688 27.5108 12.0911V3.93485C27.5108 3.55715 27.3608 3.19493 27.0937 2.92786C26.8267 2.66078 26.4644 2.51074 26.0867 2.51074ZM25.1805 11.1849H21.3289V25.167H7.67045V11.1849H3.81888V4.8411H8.7806C9.69333 7.14557 11.9363 8.72503 14.4997 8.72503C17.0631 8.72503 19.306 7.14557 20.2188 4.8411H25.1805V11.1849Z" fill="#34A962"/>
</svg>
