<svg width="241" height="146" viewBox="0 0 241 146" fill="none" xmlns="http://www.w3.org/2000/svg">
<g clip-path="url(#clip0)">
<path d="M44.4999 85C21.4999 77.5 -2.99998 109.5 -11.5 140C-20.0001 170.5 331 170.5 331 170.5L320.5 16.5C307.667 11.6667 289.314 8.33378 277.5 12C263 16.5 258 27 249 29C240 31 220.705 33.167 206.5 37C175 45.5 170 96 157 100.5C146.605 104.098 123.5 87.5 113.5 88.5C103.5 89.5 100.5 104 89.9999 104C79.4999 104 59.3812 89.8526 44.4999 85Z" fill="url(#paint0_linear)" stroke="#34A962" stroke-opacity="0.5"/>
<line x1="40.5" y1="-2.18557e-08" x2="40.5" y2="145" stroke="white" stroke-opacity="0.04"/>
<line y1="22.5" x2="241" y2="22.5" stroke="white" stroke-opacity="0.04"/>
<line y1="47.5" x2="241" y2="47.5" stroke="white" stroke-opacity="0.04"/>
<line y1="72.5" x2="241" y2="72.5" stroke="white" stroke-opacity="0.04"/>
<line y1="97.5" x2="241" y2="97.5" stroke="white" stroke-opacity="0.04"/>
<line y1="122.5" x2="241" y2="122.5" stroke="white" stroke-opacity="0.04"/>
<line x1="82.5" y1="-2.18557e-08" x2="82.5" y2="145" stroke="white" stroke-opacity="0.04"/>
<line x1="124.5" y1="-2.18557e-08" x2="124.5" y2="145" stroke="white" stroke-opacity="0.04"/>
<line x1="166.5" y1="-2.18557e-08" x2="166.5" y2="145" stroke="white" stroke-opacity="0.04"/>
<line x1="208.5" y1="-2.18557e-08" x2="208.5" y2="145" stroke="white" stroke-opacity="0.04"/>
<circle cx="40" cy="84" r="2.5" fill="#215F39" stroke="#34A962"/>
<circle cx="82" cy="102" r="2.5" fill="#215F39" stroke="#34A962"/>
<circle cx="124" cy="91" r="2.5" fill="#215F39" stroke="#34A962"/>
<circle cx="166" cy="90" r="2.5" fill="#215F39" stroke="#34A962"/>
<circle cx="208" cy="37" r="2.5" fill="#215F39" stroke="#34A962"/>
</g>
<rect x="0.5" y="0.5" width="240" height="145" rx="4.5" stroke="white" stroke-opacity="0.2"/>
<defs>
<linearGradient id="paint0_linear" x1="166" y1="3.5" x2="166" y2="149.5" gradientUnits="userSpaceOnUse">
<stop stop-color="#34A962" stop-opacity="0.45"/>
<stop offset="1" stop-color="#34A962" stop-opacity="0.1"/>
</linearGradient>
<clipPath id="clip0">
<rect width="241" height="146" rx="5" fill="white"/>
</clipPath>
</defs>
</svg>
