<svg width="36" height="36" viewBox="0 0 36 36" fill="none" xmlns="http://www.w3.org/2000/svg">
<g clip-path="url(#clip0)">
<path d="M34.7143 3.90222H25.5214C23.5487 3.90222 21.6201 4.46874 19.9607 5.53749L18 6.79508L16.0393 5.53749C14.3816 4.46895 12.4508 3.90117 10.4786 3.90222H1.28571C0.574554 3.90222 0 4.47678 0 5.18794V28.0094C0 28.7205 0.574554 29.2951 1.28571 29.2951H10.4786C12.4513 29.2951 14.3799 29.8616 16.0393 30.9303L17.8232 32.0795C17.8754 32.1116 17.9357 32.1317 17.996 32.1317C18.0562 32.1317 18.1165 32.1156 18.1688 32.0795L19.9527 30.9303C21.6161 29.8616 23.5487 29.2951 25.5214 29.2951H34.7143C35.4254 29.2951 36 28.7205 36 28.0094V5.18794C36 4.47678 35.4254 3.90222 34.7143 3.90222ZM10.4786 26.4022H2.89286V6.79508H10.4786C11.9009 6.79508 13.283 7.20088 14.4763 7.96829L16.4371 9.22588L16.7143 9.40669V27.9692C14.8018 26.9406 12.6643 26.4022 10.4786 26.4022ZM33.1071 26.4022H25.5214C23.3357 26.4022 21.1982 26.9406 19.2857 27.9692V9.40669L19.5629 9.22588L21.5237 7.96829C22.717 7.20088 24.0991 6.79508 25.5214 6.79508H33.1071V26.4022ZM13.3754 11.9379H5.91027C5.75357 11.9379 5.625 12.0745 5.625 12.2393V14.0473C5.625 14.212 5.75357 14.3486 5.91027 14.3486H13.3714C13.5281 14.3486 13.6567 14.212 13.6567 14.0473V12.2393C13.6607 12.0745 13.5321 11.9379 13.3754 11.9379ZM22.3393 12.2393V14.0473C22.3393 14.212 22.4679 14.3486 22.6246 14.3486H30.0857C30.2424 14.3486 30.371 14.212 30.371 14.0473V12.2393C30.371 12.0745 30.2424 11.9379 30.0857 11.9379H22.6246C22.4679 11.9379 22.3393 12.0745 22.3393 12.2393ZM13.3754 17.5629H5.91027C5.75357 17.5629 5.625 17.6995 5.625 17.8643V19.6723C5.625 19.837 5.75357 19.9736 5.91027 19.9736H13.3714C13.5281 19.9736 13.6567 19.837 13.6567 19.6723V17.8643C13.6607 17.6995 13.5321 17.5629 13.3754 17.5629ZM30.0897 17.5629H22.6246C22.4679 17.5629 22.3393 17.6995 22.3393 17.8643V19.6723C22.3393 19.837 22.4679 19.9736 22.6246 19.9736H30.0857C30.2424 19.9736 30.371 19.837 30.371 19.6723V17.8643C30.375 17.6995 30.2464 17.5629 30.0897 17.5629Z" fill="#3B6CCB"/>
</g>
<defs>
<clipPath id="clip0">
<rect width="36" height="36" fill="white"/>
</clipPath>
</defs>
</svg>
