<svg width="37" height="37" viewBox="0 0 37 37" fill="none" xmlns="http://www.w3.org/2000/svg">
<rect x="0.230225" y="8.84268" width="29.183" height="29.183" rx="14.5915" transform="rotate(-17.1646 0.230225 8.84268)" fill="url(#paint0_linear)"/>
<g clip-path="url(#clip0)">
<path d="M20.568 25.2461C16.8301 26.4003 12.8643 24.3058 11.7101 20.568C10.5559 16.8301 12.6504 12.8643 16.3883 11.7101C20.1261 10.5559 24.0919 12.6503 25.2461 16.3882C26.3957 20.1256 24.3029 24.0883 20.568 25.2461ZM16.8062 13.0637C13.8159 13.987 12.1404 17.1597 13.0637 20.15C13.9871 23.1403 17.1597 24.8159 20.15 23.8925C23.1403 22.9691 24.8159 19.7965 23.8925 16.8062C22.9663 13.8183 19.7962 12.1441 16.8062 13.0637ZM19.7321 22.5389C18.6683 22.8872 17.5015 22.6939 16.6069 22.0212C16.1766 21.708 15.8059 21.3204 15.5121 20.8766L22.2801 18.7867C22.2801 18.7867 22.2801 18.7867 22.2818 18.7922C22.2864 19.3224 22.1982 19.8494 22.0213 20.3493C21.6616 21.4092 20.8069 22.2267 19.7321 22.5389ZM16.1093 19.2095C15.5486 19.3827 14.9538 19.0685 14.7806 18.5078C14.6075 17.9471 14.9217 17.3523 15.4824 17.1791C16.043 17.006 16.6379 17.3202 16.811 17.8809C16.9842 18.4415 16.67 19.0364 16.1093 19.2095ZM20.8393 17.7386C20.2812 17.9109 19.6891 17.5982 19.5168 17.0402C19.3445 16.4821 19.6572 15.89 20.2152 15.7177C20.7733 15.5454 21.3654 15.8581 21.5377 16.4161C21.7092 16.9741 21.3968 17.5656 20.8393 17.7386Z" fill="white"/>
</g>
<defs>
<linearGradient id="paint0_linear" x1="14.8217" y1="8.84268" x2="14.8217" y2="38.0257" gradientUnits="userSpaceOnUse">
<stop stop-color="#886CFB"/>
<stop offset="1" stop-color="#795DEB"/>
</linearGradient>
<clipPath id="clip0">
<rect width="17" height="17" fill="white" transform="translate(7.84863 12.8643) rotate(-17.16)"/>
</clipPath>
</defs>
</svg>
