<svg width="36" height="36" viewBox="0 0 36 36" fill="none" xmlns="http://www.w3.org/2000/svg">
<g clip-path="url(#clip0)">
<path d="M34.7143 6.42128H28.2857V4.17128C28.2857 3.9945 28.1411 3.84985 27.9643 3.84985H25.7143C25.5375 3.84985 25.3929 3.9945 25.3929 4.17128V6.42128H19.4464V4.17128C19.4464 3.9945 19.3018 3.84985 19.125 3.84985H16.875C16.6982 3.84985 16.5536 3.9945 16.5536 4.17128V6.42128H10.6071V4.17128C10.6071 3.9945 10.4625 3.84985 10.2857 3.84985H8.03571C7.85893 3.84985 7.71429 3.9945 7.71429 4.17128V6.42128H1.28571C0.574554 6.42128 0 6.99584 0 7.707V30.8499C0 31.561 0.574554 32.1356 1.28571 32.1356H34.7143C35.4254 32.1356 36 31.561 36 30.8499V7.707C36 6.99584 35.4254 6.42128 34.7143 6.42128ZM33.1071 29.2427H2.89286V9.31414H7.71429V11.5641C7.71429 11.7409 7.85893 11.8856 8.03571 11.8856H10.2857C10.4625 11.8856 10.6071 11.7409 10.6071 11.5641V9.31414H16.5536V11.5641C16.5536 11.7409 16.6982 11.8856 16.875 11.8856H19.125C19.3018 11.8856 19.4464 11.7409 19.4464 11.5641V9.31414H25.3929V11.5641C25.3929 11.7409 25.5375 11.8856 25.7143 11.8856H27.9643C28.1411 11.8856 28.2857 11.7409 28.2857 11.5641V9.31414H33.1071V29.2427ZM14.1429 17.3499H6.75C6.57321 17.3499 6.42857 17.4945 6.42857 17.6713V19.5999C6.42857 19.7766 6.57321 19.9213 6.75 19.9213H14.1429C14.3196 19.9213 14.4643 19.7766 14.4643 19.5999V17.6713C14.4643 17.4945 14.3196 17.3499 14.1429 17.3499ZM14.1429 22.8141H6.75C6.57321 22.8141 6.42857 22.9588 6.42857 23.1356V25.0641C6.42857 25.2409 6.57321 25.3856 6.75 25.3856H14.1429C14.3196 25.3856 14.4643 25.2409 14.4643 25.0641V23.1356C14.4643 22.9588 14.3196 22.8141 14.1429 22.8141ZM26.5259 15.6865L22.3634 21.4601L20.242 18.5231C20.1214 18.3543 19.9286 18.2579 19.7237 18.2579H17.5179C17.2567 18.2579 17.104 18.5552 17.2567 18.7682L21.8411 25.1244C21.9003 25.2065 21.9781 25.2734 22.0682 25.3196C22.1583 25.3657 22.2581 25.3898 22.3594 25.3898C22.4606 25.3898 22.5604 25.3657 22.6505 25.3196C22.7406 25.2734 22.8185 25.2065 22.8777 25.1244L29.5071 15.9356C29.6598 15.7226 29.5071 15.4253 29.246 15.4253H27.0402C26.8393 15.4213 26.6464 15.5217 26.5259 15.6865Z" fill="#3B6CCB"/>
</g>
<defs>
<clipPath id="clip0">
<rect width="36" height="36" fill="white"/>
</clipPath>
</defs>
</svg>
