<svg width="29" height="30" viewBox="0 0 29 30" fill="none" xmlns="http://www.w3.org/2000/svg">
<path d="M1.15503 19.4484C1.15503 21.6695 2.6115 23.0623 4.71429 23.0623C5.91588 23.0623 6.99913 22.5434 7.8184 21.6058L9.43872 19.7215C9.6663 19.4484 9.90297 19.33 10.1852 19.33H18.8057C19.0879 19.33 19.3245 19.4484 19.5521 19.7215L21.1724 21.6058C21.9917 22.5434 23.075 23.0623 24.2765 23.0623C26.3793 23.0623 27.8358 21.6695 27.8358 19.4484C27.8358 18.4926 27.6264 17.4093 27.2714 16.2077C26.707 14.3234 25.733 11.7837 24.8045 9.82656C24.0126 8.16982 23.5847 7.35965 21.5821 6.90451C19.8252 6.50398 17.422 6.23999 14.5 6.23999C11.5779 6.23999 9.16563 6.50398 7.40876 6.90451C5.41521 7.35965 4.97827 8.16982 4.18631 9.82656C3.25781 11.7837 2.2838 14.3234 1.71941 16.2077C1.3644 17.4093 1.15503 18.4926 1.15503 19.4484ZM2.86639 19.4302C2.86639 18.8749 2.99383 18.2104 3.27602 17.2455C3.88592 15.1427 4.94186 12.43 5.85216 10.4274C6.2891 9.47154 6.54398 8.93447 7.61813 8.67958C9.29307 8.28816 11.6325 8.02417 14.5 8.02417C17.3583 8.02417 19.7069 8.28816 21.3818 8.67958C22.456 8.93447 22.6926 9.47154 23.1387 10.4274C24.0672 12.43 25.0867 15.1427 25.7239 17.2455C26.0061 18.2104 26.1244 18.8749 26.1244 19.4302C26.1244 20.6045 25.3052 21.3236 24.231 21.3236C23.5756 21.3236 22.9293 20.9777 22.4104 20.3769L20.5807 18.3014C20.1347 17.7825 19.7706 17.5368 18.9877 17.5368H10.0122C9.22025 17.5368 8.85613 17.7825 8.41009 18.3014L6.5895 20.3769C6.07063 20.9777 5.41521 21.3236 4.7689 21.3236C3.68565 21.3236 2.86639 20.6045 2.86639 19.4302ZM7.06285 12.876C7.06285 13.3858 7.38145 13.7044 7.89122 13.7044H9.42052V15.1882C9.42052 15.698 9.73002 16.0257 10.2307 16.0257C10.7222 16.0257 11.0317 15.698 11.0317 15.1882V13.7044H12.47C13.0253 13.7044 13.3621 13.3858 13.3621 12.876C13.3621 12.3845 13.0253 12.0659 12.47 12.0659H11.0317V10.5912C11.0317 10.0814 10.7222 9.75373 10.2307 9.75373C9.73002 9.75373 9.42052 10.0814 9.42052 10.5912V12.0659H7.89122C7.38145 12.0659 7.06285 12.3845 7.06285 12.876ZM20.1802 12.7941C20.9449 12.7941 21.5275 12.2115 21.5275 11.4469C21.5275 10.6822 20.9449 10.0905 20.1802 10.0905C19.4338 10.0905 18.833 10.6822 18.833 11.4469C18.833 12.2115 19.4338 12.7941 20.1802 12.7941ZM17.4766 15.525C18.2413 15.525 18.8239 14.9424 18.8239 14.1869C18.8239 13.4222 18.2413 12.8305 17.4766 12.8305C16.7211 12.8305 16.1294 13.4222 16.1294 14.1869C16.1294 14.9424 16.7211 15.525 17.4766 15.525Z" fill="#34A962"/>
</svg>
