<svg width="57" height="57" viewBox="0 0 57 57" fill="none" xmlns="http://www.w3.org/2000/svg">
<rect x="7.3756" y="0.564646" width="49" height="49" rx="24.5" transform="rotate(7.98998 7.3756 0.564646)" stroke="url(#paint0_linear)" stroke-dasharray="5 3"/>
<rect x="4.66052" y="9.63513" width="42" height="42" rx="21" transform="rotate(-6.80224 4.66052 9.63513)" fill="url(#paint1_linear)"/>
<g clip-path="url(#clip0)">
<path d="M29.0857 37.1022C28.0803 37.2171 27.1688 36.5036 27.039 35.5L30.6799 35.0657C30.7111 35.3087 30.6938 35.5555 30.629 35.7918C30.4554 36.3682 30.0154 36.826 29.4464 37.0222L29.4418 37.0228L29.43 37.0242L29.4209 37.0252L29.4109 37.0264L29.4045 37.0272C29.3008 37.0619 29.1941 37.087 29.0857 37.1022ZM36.0417 33.5029L21.4783 35.2401L21.2611 33.4197L22.973 32.2923L22.3759 27.2861C22.1747 26.0076 22.3127 24.6988 22.7761 23.4903C23.2465 22.3647 24.1763 21.4944 25.3305 21.0993L25.0938 19.115L28.7347 18.6807L28.9714 20.665C31.3855 20.9439 32.9225 22.8321 33.2984 25.9833L33.8956 30.9894L35.8246 31.6825L36.0417 33.5029ZM36.8577 25.0971L35.0373 25.3143C34.6717 22.9705 33.2785 20.9124 31.2383 19.7022L32.3756 18.2464C33.5652 18.9635 34.5744 19.9441 35.3254 21.1127C36.1021 22.3227 36.6235 23.6785 36.8577 25.0971ZM20.5011 27.0482L18.6807 27.2653C18.5746 25.8314 18.7625 24.391 19.2328 23.0323C19.6878 21.7198 20.438 20.5294 21.4257 19.5526L22.8734 20.7C21.1749 22.356 20.3049 24.6841 20.5011 27.0482Z" fill="white"/>
</g>
<defs>
<linearGradient id="paint0_linear" x1="31.95" y1="0" x2="31.95" y2="50" gradientUnits="userSpaceOnUse">
<stop stop-color="#00EAD3"/>
<stop offset="1" stop-color="#00D4C0"/>
</linearGradient>
<linearGradient id="paint1_linear" x1="25.6605" y1="9.63513" x2="25.6605" y2="51.6351" gradientUnits="userSpaceOnUse">
<stop stop-color="#00EAD3"/>
<stop offset="1" stop-color="#00D5C0"/>
</linearGradient>
<clipPath id="clip0">
<rect width="22" height="22" fill="white" transform="translate(15.7745 18.3803) rotate(-6.80224)"/>
</clipPath>
</defs>
</svg>
