<svg width="1374" height="470" viewBox="0 0 1374 470" fill="none" xmlns="http://www.w3.org/2000/svg">
<g filter="url(#filter0_f)">
<path fill-rule="evenodd" clip-rule="evenodd" d="M1372.68 433.057C1349.95 450.878 1036.88 465 654 465C369.075 465 122.805 457.18 6.08038 445.834L115.5 339.546L244.5 426.371L456 219.407L643 365.771L927 158.806L1093.5 144.985L1250 5L1374 28.7442L1372.68 433.057Z" fill="url(#paint0_linear)" fill-opacity="0.2"/>
<path d="M1372.68 433.057L1372.99 433.45L1373.18 433.301L1373.18 433.059L1372.68 433.057ZM6.08038 445.834L5.732 445.475L4.95795 446.227L6.03201 446.331L6.08038 445.834ZM115.5 339.546L115.779 339.131L115.443 338.904L115.152 339.187L115.5 339.546ZM244.5 426.371L244.221 426.786L244.559 427.014L244.85 426.729L244.5 426.371ZM456 219.407L456.308 219.013L455.963 218.743L455.65 219.049L456 219.407ZM643 365.771L642.692 366.164L642.989 366.397L643.294 366.175L643 365.771ZM927 158.806L926.959 158.308L926.819 158.319L926.706 158.402L927 158.806ZM1093.5 144.985L1093.54 145.483L1093.71 145.469L1093.83 145.357L1093.5 144.985ZM1250 5L1250.09 4.50892L1249.85 4.46239L1249.67 4.62733L1250 5ZM1374 28.7442L1374.5 28.7459L1374.5 28.3311L1374.09 28.2532L1374 28.7442ZM1372.37 432.663C1371.03 433.715 1368.55 434.793 1364.93 435.873C1361.31 436.948 1356.62 438.01 1350.89 439.054C1339.42 441.142 1323.85 443.154 1304.59 445.069C1266.07 448.898 1212.85 452.333 1148.37 455.212C1019.41 460.97 845.433 464.5 654 464.5V465.5C845.443 465.5 1019.44 461.969 1148.42 456.211C1212.91 453.332 1266.15 449.895 1304.69 446.064C1323.96 444.148 1339.56 442.133 1351.07 440.038C1356.82 438.991 1361.55 437.921 1365.21 436.832C1368.85 435.747 1371.49 434.627 1372.99 433.45L1372.37 432.663ZM654 464.5C369.077 464.5 122.827 456.679 6.12876 445.336L6.03201 446.331C122.783 457.68 369.073 465.5 654 465.5V464.5ZM115.152 339.187L5.732 445.475L6.42877 446.192L115.848 339.904L115.152 339.187ZM244.779 425.957L115.779 339.131L115.221 339.96L244.221 426.786L244.779 425.957ZM455.65 219.049L244.15 426.014L244.85 426.729L456.35 219.764L455.65 219.049ZM643.308 365.377L456.308 219.013L455.692 219.801L642.692 366.164L643.308 365.377ZM926.706 158.402L642.706 365.366L643.294 366.175L927.294 159.21L926.706 158.402ZM1093.46 144.486L926.959 158.308L927.041 159.304L1093.54 145.483L1093.46 144.486ZM1249.67 4.62733L1093.17 144.612L1093.83 145.357L1250.33 5.37267L1249.67 4.62733ZM1374.09 28.2532L1250.09 4.50892L1249.91 5.49108L1373.91 29.2353L1374.09 28.2532ZM1373.18 433.059L1374.5 28.7459L1373.5 28.7426L1372.18 433.055L1373.18 433.059Z" fill="url(#paint1_linear)" fill-opacity="0.5"/>
</g>
<defs>
<filter id="filter0_f" x="0.957947" y="0.462402" width="1377.54" height="469.038" filterUnits="userSpaceOnUse" color-interpolation-filters="sRGB">
<feFlood flood-opacity="0" result="BackgroundImageFix"/>
<feBlend mode="normal" in="SourceGraphic" in2="BackgroundImageFix" result="shape"/>
<feGaussianBlur stdDeviation="2" result="effect1_foregroundBlur"/>
</filter>
<linearGradient id="paint0_linear" x1="667.75" y1="5" x2="667.75" y2="407" gradientUnits="userSpaceOnUse">
<stop stop-color="#33764A" stop-opacity="0.5"/>
<stop offset="1" stop-color="#33764A" stop-opacity="0"/>
</linearGradient>
<linearGradient id="paint1_linear" x1="690.04" y1="5" x2="690.04" y2="419.638" gradientUnits="userSpaceOnUse">
<stop stop-color="#65AF7E"/>
<stop offset="1" stop-color="#65AF7E" stop-opacity="0"/>
</linearGradient>
</defs>
</svg>
