<svg width="29" height="30" viewBox="0 0 29 30" fill="none" xmlns="http://www.w3.org/2000/svg">
<path d="M25.6337 10.5962H18.9015V3.86405C18.9015 3.57923 18.6685 3.34619 18.3837 3.34619H3.36582C3.081 3.34619 2.84796 3.57923 2.84796 3.86405V18.8819C2.84796 19.1667 3.081 19.3998 3.36582 19.3998H10.098V26.1319C10.098 26.4167 10.331 26.6498 10.6158 26.6498H25.6337C25.9185 26.6498 26.1515 26.4167 26.1515 26.1319V11.114C26.1515 10.8292 25.9185 10.5962 25.6337 10.5962ZM10.098 11.114V17.1989H5.04885V5.54708H16.7006V10.5962H10.6158C10.331 10.5962 10.098 10.8292 10.098 11.114ZM16.7006 12.7971V17.1989H12.2989V12.7971H16.7006ZM23.9506 24.4489H12.2989V19.3998H18.3837C18.6685 19.3998 18.9015 19.1667 18.9015 18.8819V12.7971H23.9506V24.4489Z" fill="#34A962"/>
</svg>
